<mxfile host="app.diagrams.net" agent="Mozilla/5.0 (X11; Linux x86_64) AppleWebKit/537.36 (KHTML, like Gecko) Chrome/135.0.0.0 Safari/537.36" version="26.2.14">
  <diagram name="Página-1" id="db_ipzHNhEKeeX8dPx8Y">
    <mxGraphModel dx="34373" dy="43809" grid="1" gridSize="10" guides="1" tooltips="1" connect="1" arrows="1" fold="1" page="1" pageScale="1" pageWidth="827" pageHeight="1169" math="0" shadow="0">
      <root>
        <mxCell id="0" />
        <mxCell id="1" parent="0" />
        <mxCell id="JsS4taf1Mu2UrzmlKcsl-1" value="Usuario" style="shape=actor;verticalLabelPosition=bottom;verticalAlign=top;" vertex="1" parent="1">
          <mxGeometry x="-32040" y="-40510" width="60" height="70" as="geometry" />
        </mxCell>
        <mxCell id="JsS4taf1Mu2UrzmlKcsl-2" value="Conexión de wallet" style="ellipse;whiteSpace=wrap;html=1;" vertex="1" parent="1">
          <mxGeometry x="-31820" y="-40490" width="160" height="60" as="geometry" />
        </mxCell>
        <mxCell id="JsS4taf1Mu2UrzmlKcsl-3" value="1.Conexión de wallet (autenticación)" style="text;html=1;align=center;verticalAlign=middle;resizable=0;points=[];autosize=1;strokeColor=none;fillColor=none;" vertex="1" parent="1">
          <mxGeometry x="-32050" y="-40600" width="220" height="30" as="geometry" />
        </mxCell>
        <mxCell id="JsS4taf1Mu2UrzmlKcsl-4" value="" style="endArrow=classic;html=1;rounded=0;exitX=1;exitY=0.75;exitDx=0;exitDy=0;entryX=0;entryY=0.5;entryDx=0;entryDy=0;" edge="1" parent="1" source="JsS4taf1Mu2UrzmlKcsl-1" target="JsS4taf1Mu2UrzmlKcsl-2">
          <mxGeometry width="50" height="50" relative="1" as="geometry">
            <mxPoint x="-31810" y="-40460" as="sourcePoint" />
            <mxPoint x="-31760" y="-40510" as="targetPoint" />
          </mxGeometry>
        </mxCell>
        <mxCell id="JsS4taf1Mu2UrzmlKcsl-7" value="Mostrar mensaje de error" style="ellipse;whiteSpace=wrap;html=1;" vertex="1" parent="1">
          <mxGeometry x="-31740" y="-40660" width="160" height="60" as="geometry" />
        </mxCell>
        <mxCell id="JsS4taf1Mu2UrzmlKcsl-11" value="Organizador" style="shape=actor;verticalLabelPosition=bottom;verticalAlign=top;" vertex="1" parent="1">
          <mxGeometry x="-32030" y="-40120" width="60" height="70" as="geometry" />
        </mxCell>
        <mxCell id="JsS4taf1Mu2UrzmlKcsl-12" value="2. Publicar evento y generar entradas" style="text;html=1;align=center;verticalAlign=middle;resizable=0;points=[];autosize=1;strokeColor=none;fillColor=none;" vertex="1" parent="1">
          <mxGeometry x="-32040" y="-40200" width="220" height="30" as="geometry" />
        </mxCell>
        <mxCell id="JsS4taf1Mu2UrzmlKcsl-14" value="Administrador" style="shape=actor;verticalLabelPosition=bottom;verticalAlign=top;" vertex="1" parent="1">
          <mxGeometry x="-32030" y="-39950" width="60" height="70" as="geometry" />
        </mxCell>
        <mxCell id="JsS4taf1Mu2UrzmlKcsl-15" value="" style="endArrow=classic;html=1;rounded=0;entryX=0;entryY=0.5;entryDx=0;entryDy=0;" edge="1" parent="1" target="JsS4taf1Mu2UrzmlKcsl-17">
          <mxGeometry width="50" height="50" relative="1" as="geometry">
            <mxPoint x="-31970" y="-40080" as="sourcePoint" />
            <mxPoint x="-31810" y="-40077" as="targetPoint" />
          </mxGeometry>
        </mxCell>
        <mxCell id="JsS4taf1Mu2UrzmlKcsl-16" value="Mostrar dirección en interfaz" style="ellipse;whiteSpace=wrap;html=1;" vertex="1" parent="1">
          <mxGeometry x="-31820" y="-40310" width="160" height="60" as="geometry" />
        </mxCell>
        <mxCell id="JsS4taf1Mu2UrzmlKcsl-17" value="Publicar evento y generar entradas en blockchain" style="ellipse;whiteSpace=wrap;html=1;" vertex="1" parent="1">
          <mxGeometry x="-31810" y="-40110" width="160" height="60" as="geometry" />
        </mxCell>
        <mxCell id="JsS4taf1Mu2UrzmlKcsl-18" value="" style="endArrow=classic;html=1;rounded=0;entryX=0.5;entryY=1;entryDx=0;entryDy=0;exitX=0.5;exitY=0;exitDx=0;exitDy=0;" edge="1" parent="1" source="JsS4taf1Mu2UrzmlKcsl-20">
          <mxGeometry relative="1" as="geometry">
            <mxPoint x="-31730" y="-39960" as="sourcePoint" />
            <mxPoint x="-31730.42" y="-40050" as="targetPoint" />
          </mxGeometry>
        </mxCell>
        <mxCell id="JsS4taf1Mu2UrzmlKcsl-19" value="extend" style="edgeLabel;resizable=0;html=1;;align=center;verticalAlign=middle;" connectable="0" vertex="1" parent="JsS4taf1Mu2UrzmlKcsl-18">
          <mxGeometry relative="1" as="geometry" />
        </mxCell>
        <mxCell id="JsS4taf1Mu2UrzmlKcsl-20" value="Autorizar publicación evento" style="ellipse;whiteSpace=wrap;html=1;" vertex="1" parent="1">
          <mxGeometry x="-31810" y="-39940" width="160" height="60" as="geometry" />
        </mxCell>
        <mxCell id="JsS4taf1Mu2UrzmlKcsl-21" value="" style="endArrow=classic;html=1;rounded=0;entryX=0;entryY=0.5;entryDx=0;entryDy=0;" edge="1" parent="1">
          <mxGeometry width="50" height="50" relative="1" as="geometry">
            <mxPoint x="-31970" y="-39910.42" as="sourcePoint" />
            <mxPoint x="-31810" y="-39910.42" as="targetPoint" />
          </mxGeometry>
        </mxCell>
        <mxCell id="JsS4taf1Mu2UrzmlKcsl-22" value="3. Compra de entradas" style="text;html=1;align=center;verticalAlign=middle;resizable=0;points=[];autosize=1;strokeColor=none;fillColor=none;" vertex="1" parent="1">
          <mxGeometry x="-32030" y="-39800" width="150" height="30" as="geometry" />
        </mxCell>
        <mxCell id="JsS4taf1Mu2UrzmlKcsl-25" value="" style="endArrow=classic;html=1;rounded=0;entryX=0;entryY=0.5;entryDx=0;entryDy=0;" edge="1" parent="1" target="JsS4taf1Mu2UrzmlKcsl-26">
          <mxGeometry width="50" height="50" relative="1" as="geometry">
            <mxPoint x="-31970" y="-39700" as="sourcePoint" />
            <mxPoint x="-31810" y="-39697" as="targetPoint" />
          </mxGeometry>
        </mxCell>
        <mxCell id="JsS4taf1Mu2UrzmlKcsl-26" value="Comprar entradas" style="ellipse;whiteSpace=wrap;html=1;" vertex="1" parent="1">
          <mxGeometry x="-31810" y="-39730" width="160" height="60" as="geometry" />
        </mxCell>
        <mxCell id="JsS4taf1Mu2UrzmlKcsl-31" value="Usuario registrado" style="shape=actor;verticalLabelPosition=bottom;verticalAlign=top;" vertex="1" parent="1">
          <mxGeometry x="-32030" y="-39746" width="60" height="70" as="geometry" />
        </mxCell>
        <mxCell id="JsS4taf1Mu2UrzmlKcsl-32" value="Enviar transacción a la blockchain" style="ellipse;whiteSpace=wrap;html=1;" vertex="1" parent="1">
          <mxGeometry x="-31810" y="-39560" width="160" height="60" as="geometry" />
        </mxCell>
        <mxCell id="JsS4taf1Mu2UrzmlKcsl-35" value="Transferir entrada a la wallet del usuario" style="ellipse;whiteSpace=wrap;html=1;" vertex="1" parent="1">
          <mxGeometry x="-31620" y="-39650" width="160" height="60" as="geometry" />
        </mxCell>
        <mxCell id="JsS4taf1Mu2UrzmlKcsl-36" value="Usuario registrado" style="shape=actor;verticalLabelPosition=bottom;verticalAlign=top;" vertex="1" parent="1">
          <mxGeometry x="-31385" y="-40510" width="60" height="70" as="geometry" />
        </mxCell>
        <mxCell id="JsS4taf1Mu2UrzmlKcsl-37" value="Consultar sus entradas" style="ellipse;whiteSpace=wrap;html=1;" vertex="1" parent="1">
          <mxGeometry x="-31165" y="-40490" width="160" height="60" as="geometry" />
        </mxCell>
        <mxCell id="JsS4taf1Mu2UrzmlKcsl-38" value="4.Consulta de entradas" style="text;html=1;align=center;verticalAlign=middle;resizable=0;points=[];autosize=1;strokeColor=none;fillColor=none;" vertex="1" parent="1">
          <mxGeometry x="-31415" y="-40600" width="150" height="30" as="geometry" />
        </mxCell>
        <mxCell id="JsS4taf1Mu2UrzmlKcsl-39" value="" style="endArrow=classic;html=1;rounded=0;entryX=0;entryY=0.5;entryDx=0;entryDy=0;" edge="1" parent="1" target="JsS4taf1Mu2UrzmlKcsl-37">
          <mxGeometry width="50" height="50" relative="1" as="geometry">
            <mxPoint x="-31325" y="-40460" as="sourcePoint" />
            <mxPoint x="-31105" y="-40510" as="targetPoint" />
          </mxGeometry>
        </mxCell>
        <mxCell id="JsS4taf1Mu2UrzmlKcsl-40" value="" style="endArrow=classic;html=1;rounded=0;exitX=0.5;exitY=1;exitDx=0;exitDy=0;entryX=0.5;entryY=0;entryDx=0;entryDy=0;" edge="1" parent="1" source="JsS4taf1Mu2UrzmlKcsl-37" target="JsS4taf1Mu2UrzmlKcsl-52">
          <mxGeometry relative="1" as="geometry">
            <mxPoint x="-31175" y="-40480" as="sourcePoint" />
            <mxPoint x="-31005" y="-40600" as="targetPoint" />
          </mxGeometry>
        </mxCell>
        <mxCell id="JsS4taf1Mu2UrzmlKcsl-41" value="include" style="edgeLabel;resizable=0;html=1;;align=center;verticalAlign=middle;" connectable="0" vertex="1" parent="JsS4taf1Mu2UrzmlKcsl-40">
          <mxGeometry relative="1" as="geometry" />
        </mxCell>
        <mxCell id="JsS4taf1Mu2UrzmlKcsl-42" value="" style="endArrow=classic;html=1;rounded=0;exitX=0.5;exitY=1;exitDx=0;exitDy=0;" edge="1" parent="1" source="JsS4taf1Mu2UrzmlKcsl-2">
          <mxGeometry relative="1" as="geometry">
            <mxPoint x="-31670" y="-40410" as="sourcePoint" />
            <mxPoint x="-31740" y="-40310" as="targetPoint" />
          </mxGeometry>
        </mxCell>
        <mxCell id="JsS4taf1Mu2UrzmlKcsl-43" value="include" style="edgeLabel;resizable=0;html=1;;align=center;verticalAlign=middle;" connectable="0" vertex="1" parent="JsS4taf1Mu2UrzmlKcsl-42">
          <mxGeometry relative="1" as="geometry" />
        </mxCell>
        <mxCell id="JsS4taf1Mu2UrzmlKcsl-44" value="" style="endArrow=classic;html=1;rounded=0;exitX=0.5;exitY=1;exitDx=0;exitDy=0;entryX=0.5;entryY=0;entryDx=0;entryDy=0;" edge="1" parent="1" source="JsS4taf1Mu2UrzmlKcsl-7" target="JsS4taf1Mu2UrzmlKcsl-2">
          <mxGeometry relative="1" as="geometry">
            <mxPoint x="-31650" y="-40450" as="sourcePoint" />
            <mxPoint x="-31650" y="-40590" as="targetPoint" />
            <Array as="points">
              <mxPoint x="-31660" y="-40510" />
            </Array>
          </mxGeometry>
        </mxCell>
        <mxCell id="JsS4taf1Mu2UrzmlKcsl-45" value="extend" style="edgeLabel;resizable=0;html=1;;align=center;verticalAlign=middle;" connectable="0" vertex="1" parent="JsS4taf1Mu2UrzmlKcsl-44">
          <mxGeometry relative="1" as="geometry" />
        </mxCell>
        <mxCell id="JsS4taf1Mu2UrzmlKcsl-46" value="" style="endArrow=classic;html=1;rounded=0;entryX=0.5;entryY=0;entryDx=0;entryDy=0;exitX=0.5;exitY=1;exitDx=0;exitDy=0;" edge="1" parent="1" source="JsS4taf1Mu2UrzmlKcsl-26" target="JsS4taf1Mu2UrzmlKcsl-32">
          <mxGeometry relative="1" as="geometry">
            <mxPoint x="-31720" y="-39550" as="sourcePoint" />
            <mxPoint x="-31720.42" y="-39660" as="targetPoint" />
          </mxGeometry>
        </mxCell>
        <mxCell id="JsS4taf1Mu2UrzmlKcsl-47" value="include" style="edgeLabel;resizable=0;html=1;;align=center;verticalAlign=middle;" connectable="0" vertex="1" parent="JsS4taf1Mu2UrzmlKcsl-46">
          <mxGeometry relative="1" as="geometry" />
        </mxCell>
        <mxCell id="JsS4taf1Mu2UrzmlKcsl-48" value="" style="endArrow=classic;html=1;rounded=0;entryX=0.5;entryY=0;entryDx=0;entryDy=0;exitX=1;exitY=0.5;exitDx=0;exitDy=0;" edge="1" parent="1" source="JsS4taf1Mu2UrzmlKcsl-26" target="JsS4taf1Mu2UrzmlKcsl-35">
          <mxGeometry relative="1" as="geometry">
            <mxPoint x="-31530" y="-39640" as="sourcePoint" />
            <mxPoint x="-31640" y="-39690" as="targetPoint" />
            <Array as="points">
              <mxPoint x="-31540" y="-39700" />
            </Array>
          </mxGeometry>
        </mxCell>
        <mxCell id="JsS4taf1Mu2UrzmlKcsl-49" value="include" style="edgeLabel;resizable=0;html=1;;align=center;verticalAlign=middle;" connectable="0" vertex="1" parent="JsS4taf1Mu2UrzmlKcsl-48">
          <mxGeometry relative="1" as="geometry" />
        </mxCell>
        <mxCell id="JsS4taf1Mu2UrzmlKcsl-52" value="Consulta de entradas asociadas a la wallet conectada" style="ellipse;whiteSpace=wrap;html=1;" vertex="1" parent="1">
          <mxGeometry x="-31165" y="-40340" width="160" height="60" as="geometry" />
        </mxCell>
        <mxCell id="JsS4taf1Mu2UrzmlKcsl-53" value="Usuario" style="shape=actor;verticalLabelPosition=bottom;verticalAlign=top;" vertex="1" parent="1">
          <mxGeometry x="-31405" y="-40100" width="60" height="70" as="geometry" />
        </mxCell>
        <mxCell id="JsS4taf1Mu2UrzmlKcsl-54" value="Ver listado de eventos" style="ellipse;whiteSpace=wrap;html=1;" vertex="1" parent="1">
          <mxGeometry x="-31185" y="-40080" width="160" height="60" as="geometry" />
        </mxCell>
        <mxCell id="JsS4taf1Mu2UrzmlKcsl-55" value="" style="endArrow=classic;html=1;rounded=0;entryX=0;entryY=0.5;entryDx=0;entryDy=0;" edge="1" parent="1" target="JsS4taf1Mu2UrzmlKcsl-54">
          <mxGeometry width="50" height="50" relative="1" as="geometry">
            <mxPoint x="-31345" y="-40050" as="sourcePoint" />
            <mxPoint x="-31125" y="-40100" as="targetPoint" />
          </mxGeometry>
        </mxCell>
        <mxCell id="JsS4taf1Mu2UrzmlKcsl-56" value="" style="endArrow=classic;html=1;rounded=0;exitX=0.5;exitY=1;exitDx=0;exitDy=0;entryX=0.5;entryY=0;entryDx=0;entryDy=0;" edge="1" parent="1" source="JsS4taf1Mu2UrzmlKcsl-54" target="JsS4taf1Mu2UrzmlKcsl-58">
          <mxGeometry relative="1" as="geometry">
            <mxPoint x="-31195" y="-40070" as="sourcePoint" />
            <mxPoint x="-31025" y="-40190" as="targetPoint" />
          </mxGeometry>
        </mxCell>
        <mxCell id="JsS4taf1Mu2UrzmlKcsl-57" value="include" style="edgeLabel;resizable=0;html=1;;align=center;verticalAlign=middle;" connectable="0" vertex="1" parent="JsS4taf1Mu2UrzmlKcsl-56">
          <mxGeometry relative="1" as="geometry" />
        </mxCell>
        <mxCell id="JsS4taf1Mu2UrzmlKcsl-58" value="Enseñar datos de los eventos" style="ellipse;whiteSpace=wrap;html=1;" vertex="1" parent="1">
          <mxGeometry x="-31185" y="-39930" width="160" height="60" as="geometry" />
        </mxCell>
        <mxCell id="JsS4taf1Mu2UrzmlKcsl-59" value="5. Listado público de eventos" style="text;html=1;align=center;verticalAlign=middle;resizable=0;points=[];autosize=1;strokeColor=none;fillColor=none;" vertex="1" parent="1">
          <mxGeometry x="-31430" y="-40160" width="180" height="30" as="geometry" />
        </mxCell>
        <mxCell id="JsS4taf1Mu2UrzmlKcsl-60" value="" style="endArrow=classic;html=1;rounded=0;exitX=1;exitY=0.5;exitDx=0;exitDy=0;entryX=0;entryY=0.5;entryDx=0;entryDy=0;" edge="1" parent="1" target="JsS4taf1Mu2UrzmlKcsl-62" source="JsS4taf1Mu2UrzmlKcsl-52">
          <mxGeometry relative="1" as="geometry">
            <mxPoint x="-31085" y="-40710" as="sourcePoint" />
            <mxPoint x="-31005" y="-40880" as="targetPoint" />
          </mxGeometry>
        </mxCell>
        <mxCell id="JsS4taf1Mu2UrzmlKcsl-61" value="include" style="edgeLabel;resizable=0;html=1;;align=center;verticalAlign=middle;" connectable="0" vertex="1" parent="JsS4taf1Mu2UrzmlKcsl-60">
          <mxGeometry relative="1" as="geometry" />
        </mxCell>
        <mxCell id="JsS4taf1Mu2UrzmlKcsl-62" value="Mostrar datos de sus entradas" style="ellipse;whiteSpace=wrap;html=1;" vertex="1" parent="1">
          <mxGeometry x="-30927" y="-40340" width="160" height="60" as="geometry" />
        </mxCell>
        <mxCell id="JsS4taf1Mu2UrzmlKcsl-63" value="Usuario registrado" style="shape=actor;verticalLabelPosition=bottom;verticalAlign=top;" vertex="1" parent="1">
          <mxGeometry x="-31400" y="-39740" width="60" height="70" as="geometry" />
        </mxCell>
        <mxCell id="JsS4taf1Mu2UrzmlKcsl-64" value="Buscar eventos" style="ellipse;whiteSpace=wrap;html=1;" vertex="1" parent="1">
          <mxGeometry x="-31180" y="-39720" width="160" height="60" as="geometry" />
        </mxCell>
        <mxCell id="JsS4taf1Mu2UrzmlKcsl-65" value="6. Buscador de eventos" style="text;html=1;align=center;verticalAlign=middle;resizable=0;points=[];autosize=1;strokeColor=none;fillColor=none;" vertex="1" parent="1">
          <mxGeometry x="-31430" y="-39830" width="150" height="30" as="geometry" />
        </mxCell>
        <mxCell id="JsS4taf1Mu2UrzmlKcsl-66" value="" style="endArrow=classic;html=1;rounded=0;entryX=0;entryY=0.5;entryDx=0;entryDy=0;" edge="1" parent="1" target="JsS4taf1Mu2UrzmlKcsl-64">
          <mxGeometry width="50" height="50" relative="1" as="geometry">
            <mxPoint x="-31340" y="-39690" as="sourcePoint" />
            <mxPoint x="-31120" y="-39740" as="targetPoint" />
          </mxGeometry>
        </mxCell>
        <mxCell id="JsS4taf1Mu2UrzmlKcsl-67" value="" style="endArrow=classic;html=1;rounded=0;exitX=0.5;exitY=1;exitDx=0;exitDy=0;entryX=0.5;entryY=0;entryDx=0;entryDy=0;" edge="1" parent="1" source="JsS4taf1Mu2UrzmlKcsl-64" target="JsS4taf1Mu2UrzmlKcsl-69">
          <mxGeometry relative="1" as="geometry">
            <mxPoint x="-31190" y="-39710" as="sourcePoint" />
            <mxPoint x="-31020" y="-39830" as="targetPoint" />
          </mxGeometry>
        </mxCell>
        <mxCell id="JsS4taf1Mu2UrzmlKcsl-68" value="include" style="edgeLabel;resizable=0;html=1;;align=center;verticalAlign=middle;" connectable="0" vertex="1" parent="JsS4taf1Mu2UrzmlKcsl-67">
          <mxGeometry relative="1" as="geometry" />
        </mxCell>
        <mxCell id="JsS4taf1Mu2UrzmlKcsl-69" value="Filtrar por condición eventos disponibles" style="ellipse;whiteSpace=wrap;html=1;" vertex="1" parent="1">
          <mxGeometry x="-31180" y="-39570" width="160" height="60" as="geometry" />
        </mxCell>
        <mxCell id="JsS4taf1Mu2UrzmlKcsl-70" value="" style="endArrow=classic;html=1;rounded=0;exitX=1;exitY=0.5;exitDx=0;exitDy=0;entryX=0;entryY=0.5;entryDx=0;entryDy=0;" edge="1" parent="1" source="JsS4taf1Mu2UrzmlKcsl-69" target="JsS4taf1Mu2UrzmlKcsl-72">
          <mxGeometry relative="1" as="geometry">
            <mxPoint x="-31100" y="-39940" as="sourcePoint" />
            <mxPoint x="-31020" y="-40110" as="targetPoint" />
          </mxGeometry>
        </mxCell>
        <mxCell id="JsS4taf1Mu2UrzmlKcsl-71" value="include" style="edgeLabel;resizable=0;html=1;;align=center;verticalAlign=middle;" connectable="0" vertex="1" parent="JsS4taf1Mu2UrzmlKcsl-70">
          <mxGeometry relative="1" as="geometry" />
        </mxCell>
        <mxCell id="JsS4taf1Mu2UrzmlKcsl-72" value="Enseñar resultados de b/usqueda" style="ellipse;whiteSpace=wrap;html=1;" vertex="1" parent="1">
          <mxGeometry x="-30942" y="-39570" width="160" height="60" as="geometry" />
        </mxCell>
        <mxCell id="JsS4taf1Mu2UrzmlKcsl-73" value="Usuario remitente" style="shape=actor;verticalLabelPosition=bottom;verticalAlign=top;" vertex="1" parent="1">
          <mxGeometry x="-31385" y="-39380" width="60" height="70" as="geometry" />
        </mxCell>
        <mxCell id="JsS4taf1Mu2UrzmlKcsl-74" value="Transferir entrada a otra wallet" style="ellipse;whiteSpace=wrap;html=1;" vertex="1" parent="1">
          <mxGeometry x="-31165" y="-39360" width="160" height="60" as="geometry" />
        </mxCell>
        <mxCell id="JsS4taf1Mu2UrzmlKcsl-75" value="7. Transferencia de entradas entre usuarios" style="text;html=1;align=center;verticalAlign=middle;resizable=0;points=[];autosize=1;strokeColor=none;fillColor=none;" vertex="1" parent="1">
          <mxGeometry x="-31470" y="-39470" width="260" height="30" as="geometry" />
        </mxCell>
        <mxCell id="JsS4taf1Mu2UrzmlKcsl-76" value="" style="endArrow=classic;html=1;rounded=0;entryX=0;entryY=0.5;entryDx=0;entryDy=0;" edge="1" parent="1" target="JsS4taf1Mu2UrzmlKcsl-74">
          <mxGeometry width="50" height="50" relative="1" as="geometry">
            <mxPoint x="-31325" y="-39330" as="sourcePoint" />
            <mxPoint x="-31105" y="-39380" as="targetPoint" />
          </mxGeometry>
        </mxCell>
        <mxCell id="JsS4taf1Mu2UrzmlKcsl-77" value="" style="endArrow=classic;html=1;rounded=0;exitX=0.5;exitY=1;exitDx=0;exitDy=0;entryX=0.5;entryY=0;entryDx=0;entryDy=0;" edge="1" parent="1" source="JsS4taf1Mu2UrzmlKcsl-74" target="JsS4taf1Mu2UrzmlKcsl-79">
          <mxGeometry relative="1" as="geometry">
            <mxPoint x="-31175" y="-39350" as="sourcePoint" />
            <mxPoint x="-31005" y="-39470" as="targetPoint" />
          </mxGeometry>
        </mxCell>
        <mxCell id="JsS4taf1Mu2UrzmlKcsl-78" value="include" style="edgeLabel;resizable=0;html=1;;align=center;verticalAlign=middle;" connectable="0" vertex="1" parent="JsS4taf1Mu2UrzmlKcsl-77">
          <mxGeometry relative="1" as="geometry" />
        </mxCell>
        <mxCell id="JsS4taf1Mu2UrzmlKcsl-79" value="Confirmar y ejecutar la transacción safeTransferFrom" style="ellipse;whiteSpace=wrap;html=1;" vertex="1" parent="1">
          <mxGeometry x="-31165" y="-39210" width="160" height="60" as="geometry" />
        </mxCell>
        <mxCell id="JsS4taf1Mu2UrzmlKcsl-80" value="" style="endArrow=classic;html=1;rounded=0;exitX=1;exitY=0.5;exitDx=0;exitDy=0;entryX=0;entryY=0.5;entryDx=0;entryDy=0;" edge="1" parent="1" source="JsS4taf1Mu2UrzmlKcsl-79" target="JsS4taf1Mu2UrzmlKcsl-82">
          <mxGeometry relative="1" as="geometry">
            <mxPoint x="-31085" y="-39580" as="sourcePoint" />
            <mxPoint x="-31005" y="-39750" as="targetPoint" />
          </mxGeometry>
        </mxCell>
        <mxCell id="JsS4taf1Mu2UrzmlKcsl-81" value="include" style="edgeLabel;resizable=0;html=1;;align=center;verticalAlign=middle;" connectable="0" vertex="1" parent="JsS4taf1Mu2UrzmlKcsl-80">
          <mxGeometry relative="1" as="geometry" />
        </mxCell>
        <mxCell id="JsS4taf1Mu2UrzmlKcsl-82" value="Mostrar confirmación de envío" style="ellipse;whiteSpace=wrap;html=1;" vertex="1" parent="1">
          <mxGeometry x="-30927" y="-39210" width="160" height="60" as="geometry" />
        </mxCell>
        <mxCell id="JsS4taf1Mu2UrzmlKcsl-83" value="Usuario receptor" style="shape=actor;verticalLabelPosition=bottom;verticalAlign=top;" vertex="1" parent="1">
          <mxGeometry x="-30880" y="-39380" width="60" height="70" as="geometry" />
        </mxCell>
        <mxCell id="JsS4taf1Mu2UrzmlKcsl-86" value="&lt;b&gt;&lt;font style=&quot;font-size: 28px;&quot;&gt;Funcionalidades mínimas&lt;/font&gt;&lt;/b&gt;" style="rounded=0;whiteSpace=wrap;html=1;" vertex="1" parent="1">
          <mxGeometry x="-32040" y="-40840" width="670" height="80" as="geometry" />
        </mxCell>
        <mxCell id="JsS4taf1Mu2UrzmlKcsl-87" value="&lt;b&gt;&lt;font style=&quot;font-size: 28px;&quot;&gt;Funcionalidades ampliables&lt;/font&gt;&lt;/b&gt;" style="rounded=0;whiteSpace=wrap;html=1;" vertex="1" parent="1">
          <mxGeometry x="-32085" y="-39010" width="670" height="80" as="geometry" />
        </mxCell>
        <mxCell id="JsS4taf1Mu2UrzmlKcsl-88" value="Usuario vendedor" style="shape=actor;verticalLabelPosition=bottom;verticalAlign=top;" vertex="1" parent="1">
          <mxGeometry x="-32190" y="-38770" width="60" height="70" as="geometry" />
        </mxCell>
        <mxCell id="JsS4taf1Mu2UrzmlKcsl-89" value="Transacción en el mercado secundario" style="ellipse;whiteSpace=wrap;html=1;" vertex="1" parent="1">
          <mxGeometry x="-31990" y="-38577" width="160" height="60" as="geometry" />
        </mxCell>
        <mxCell id="JsS4taf1Mu2UrzmlKcsl-90" value="8. Venta de entradas en mercado secundario" style="text;html=1;align=center;verticalAlign=middle;resizable=0;points=[];autosize=1;strokeColor=none;fillColor=none;" vertex="1" parent="1">
          <mxGeometry x="-32200" y="-38850" width="260" height="30" as="geometry" />
        </mxCell>
        <mxCell id="JsS4taf1Mu2UrzmlKcsl-91" value="" style="endArrow=classic;html=1;rounded=0;entryX=0;entryY=0.5;entryDx=0;entryDy=0;" edge="1" parent="1" target="JsS4taf1Mu2UrzmlKcsl-89">
          <mxGeometry width="50" height="50" relative="1" as="geometry">
            <mxPoint x="-32130" y="-38720" as="sourcePoint" />
            <mxPoint x="-31910" y="-38770" as="targetPoint" />
            <Array as="points">
              <mxPoint x="-31990" y="-38690" />
            </Array>
          </mxGeometry>
        </mxCell>
        <mxCell id="JsS4taf1Mu2UrzmlKcsl-92" value="" style="endArrow=classic;html=1;rounded=0;entryX=0.5;entryY=0;entryDx=0;entryDy=0;" edge="1" parent="1" target="JsS4taf1Mu2UrzmlKcsl-94">
          <mxGeometry relative="1" as="geometry">
            <mxPoint x="-31970" y="-38526" as="sourcePoint" />
            <mxPoint x="-31810" y="-38860" as="targetPoint" />
          </mxGeometry>
        </mxCell>
        <mxCell id="JsS4taf1Mu2UrzmlKcsl-93" value="include" style="edgeLabel;resizable=0;html=1;;align=center;verticalAlign=middle;" connectable="0" vertex="1" parent="JsS4taf1Mu2UrzmlKcsl-92">
          <mxGeometry relative="1" as="geometry" />
        </mxCell>
        <mxCell id="JsS4taf1Mu2UrzmlKcsl-94" value="Listar entrada en el Marketplace" style="ellipse;whiteSpace=wrap;html=1;" vertex="1" parent="1">
          <mxGeometry x="-32050" y="-38420" width="160" height="60" as="geometry" />
        </mxCell>
        <mxCell id="JsS4taf1Mu2UrzmlKcsl-97" value="Comprar entrada publicada" style="ellipse;whiteSpace=wrap;html=1;" vertex="1" parent="1">
          <mxGeometry x="-31785" y="-38420" width="160" height="60" as="geometry" />
        </mxCell>
        <mxCell id="JsS4taf1Mu2UrzmlKcsl-98" value="Usuario comprador" style="shape=actor;verticalLabelPosition=bottom;verticalAlign=top;" vertex="1" parent="1">
          <mxGeometry x="-31685" y="-38770" width="60" height="70" as="geometry" />
        </mxCell>
        <mxCell id="JsS4taf1Mu2UrzmlKcsl-99" value="" style="endArrow=classic;html=1;rounded=0;entryX=1;entryY=0.5;entryDx=0;entryDy=0;exitX=0;exitY=0.75;exitDx=0;exitDy=0;" edge="1" parent="1" source="JsS4taf1Mu2UrzmlKcsl-98" target="JsS4taf1Mu2UrzmlKcsl-89">
          <mxGeometry width="50" height="50" relative="1" as="geometry">
            <mxPoint x="-32120" y="-38710" as="sourcePoint" />
            <mxPoint x="-31980" y="-38537" as="targetPoint" />
            <Array as="points">
              <mxPoint x="-31830" y="-38690" />
            </Array>
          </mxGeometry>
        </mxCell>
        <mxCell id="JsS4taf1Mu2UrzmlKcsl-100" value="" style="endArrow=classic;html=1;rounded=0;entryX=0.5;entryY=0;entryDx=0;entryDy=0;exitX=1;exitY=0.5;exitDx=0;exitDy=0;" edge="1" parent="1" source="JsS4taf1Mu2UrzmlKcsl-89" target="JsS4taf1Mu2UrzmlKcsl-97">
          <mxGeometry relative="1" as="geometry">
            <mxPoint x="-31830" y="-38530" as="sourcePoint" />
            <mxPoint x="-31830" y="-38424" as="targetPoint" />
            <Array as="points">
              <mxPoint x="-31705" y="-38547" />
            </Array>
          </mxGeometry>
        </mxCell>
        <mxCell id="JsS4taf1Mu2UrzmlKcsl-101" value="include" style="edgeLabel;resizable=0;html=1;;align=center;verticalAlign=middle;" connectable="0" vertex="1" parent="JsS4taf1Mu2UrzmlKcsl-100">
          <mxGeometry relative="1" as="geometry" />
        </mxCell>
        <mxCell id="JsS4taf1Mu2UrzmlKcsl-102" value="" style="endArrow=classic;html=1;rounded=0;entryX=1;entryY=0.5;entryDx=0;entryDy=0;exitX=0;exitY=0.5;exitDx=0;exitDy=0;" edge="1" parent="1" source="JsS4taf1Mu2UrzmlKcsl-97" target="JsS4taf1Mu2UrzmlKcsl-94">
          <mxGeometry relative="1" as="geometry">
            <mxPoint x="-31960" y="-38516" as="sourcePoint" />
            <mxPoint x="-31960" y="-38410" as="targetPoint" />
          </mxGeometry>
        </mxCell>
        <mxCell id="JsS4taf1Mu2UrzmlKcsl-103" value="include" style="edgeLabel;resizable=0;html=1;;align=center;verticalAlign=middle;" connectable="0" vertex="1" parent="JsS4taf1Mu2UrzmlKcsl-102">
          <mxGeometry relative="1" as="geometry" />
        </mxCell>
        <mxCell id="JsS4taf1Mu2UrzmlKcsl-104" value="" style="endArrow=classic;html=1;rounded=0;exitX=0;exitY=1;exitDx=0;exitDy=0;" edge="1" parent="1" source="JsS4taf1Mu2UrzmlKcsl-97">
          <mxGeometry relative="1" as="geometry">
            <mxPoint x="-31750" y="-38320" as="sourcePoint" />
            <mxPoint x="-31762" y="-38230" as="targetPoint" />
          </mxGeometry>
        </mxCell>
        <mxCell id="JsS4taf1Mu2UrzmlKcsl-105" value="include" style="edgeLabel;resizable=0;html=1;;align=center;verticalAlign=middle;" connectable="0" vertex="1" parent="JsS4taf1Mu2UrzmlKcsl-104">
          <mxGeometry relative="1" as="geometry" />
        </mxCell>
        <mxCell id="JsS4taf1Mu2UrzmlKcsl-106" value="Transferir entrada al comprador" style="ellipse;whiteSpace=wrap;html=1;" vertex="1" parent="1">
          <mxGeometry x="-31840" y="-38230" width="160" height="60" as="geometry" />
        </mxCell>
        <mxCell id="JsS4taf1Mu2UrzmlKcsl-108" value="Entregar fondos al vendedor tras confirmación" style="ellipse;whiteSpace=wrap;html=1;" vertex="1" parent="1">
          <mxGeometry x="-31645" y="-38230" width="160" height="60" as="geometry" />
        </mxCell>
        <mxCell id="JsS4taf1Mu2UrzmlKcsl-109" value="" style="endArrow=classic;html=1;rounded=0;exitX=1;exitY=0.5;exitDx=0;exitDy=0;entryX=0.115;entryY=0.243;entryDx=0;entryDy=0;entryPerimeter=0;" edge="1" parent="1" source="JsS4taf1Mu2UrzmlKcsl-97" target="JsS4taf1Mu2UrzmlKcsl-108">
          <mxGeometry relative="1" as="geometry">
            <mxPoint x="-31625.8" y="-38350" as="sourcePoint" />
            <mxPoint x="-31625" y="-38230" as="targetPoint" />
          </mxGeometry>
        </mxCell>
        <mxCell id="JsS4taf1Mu2UrzmlKcsl-110" value="include" style="edgeLabel;resizable=0;html=1;;align=center;verticalAlign=middle;" connectable="0" vertex="1" parent="JsS4taf1Mu2UrzmlKcsl-109">
          <mxGeometry relative="1" as="geometry" />
        </mxCell>
        <mxCell id="JsS4taf1Mu2UrzmlKcsl-111" value="9. Verificación de organizador" style="text;html=1;align=center;verticalAlign=middle;resizable=0;points=[];autosize=1;strokeColor=none;fillColor=none;" vertex="1" parent="1">
          <mxGeometry x="-32200" y="-38160" width="180" height="30" as="geometry" />
        </mxCell>
        <mxCell id="JsS4taf1Mu2UrzmlKcsl-112" value="Usuario (potencial org.)" style="shape=actor;verticalLabelPosition=bottom;verticalAlign=top;" vertex="1" parent="1">
          <mxGeometry x="-32075" y="-38090" width="60" height="70" as="geometry" />
        </mxCell>
        <mxCell id="JsS4taf1Mu2UrzmlKcsl-113" value="Administrador" style="shape=actor;verticalLabelPosition=bottom;verticalAlign=top;" vertex="1" parent="1">
          <mxGeometry x="-31830" y="-38050" width="60" height="70" as="geometry" />
        </mxCell>
        <mxCell id="JsS4taf1Mu2UrzmlKcsl-114" value="Solicitar verificacón como organizador" style="ellipse;whiteSpace=wrap;html=1;" vertex="1" parent="1">
          <mxGeometry x="-32005" y="-37930" width="160" height="60" as="geometry" />
        </mxCell>
        <mxCell id="JsS4taf1Mu2UrzmlKcsl-116" value="" style="endArrow=classic;html=1;rounded=0;exitX=1;exitY=0.75;exitDx=0;exitDy=0;entryX=0.5;entryY=0;entryDx=0;entryDy=0;" edge="1" parent="1" source="JsS4taf1Mu2UrzmlKcsl-112" target="JsS4taf1Mu2UrzmlKcsl-114">
          <mxGeometry relative="1" as="geometry">
            <mxPoint x="-31945.67" y="-38090" as="sourcePoint" />
            <mxPoint x="-31945.67" y="-37951" as="targetPoint" />
            <Array as="points">
              <mxPoint x="-31925" y="-38037" />
            </Array>
          </mxGeometry>
        </mxCell>
        <mxCell id="JsS4taf1Mu2UrzmlKcsl-118" value="" style="endArrow=classic;html=1;rounded=0;exitX=0;exitY=0.5;exitDx=0;exitDy=0;" edge="1" parent="1" source="JsS4taf1Mu2UrzmlKcsl-114">
          <mxGeometry relative="1" as="geometry">
            <mxPoint x="-31945.670000000002" y="-37850" as="sourcePoint" />
            <mxPoint x="-32005" y="-37780" as="targetPoint" />
          </mxGeometry>
        </mxCell>
        <mxCell id="JsS4taf1Mu2UrzmlKcsl-119" value="include" style="edgeLabel;resizable=0;html=1;;align=center;verticalAlign=middle;" connectable="0" vertex="1" parent="JsS4taf1Mu2UrzmlKcsl-118">
          <mxGeometry relative="1" as="geometry" />
        </mxCell>
        <mxCell id="JsS4taf1Mu2UrzmlKcsl-120" value="" style="endArrow=classic;html=1;rounded=0;exitX=1;exitY=0.5;exitDx=0;exitDy=0;" edge="1" parent="1" source="JsS4taf1Mu2UrzmlKcsl-114">
          <mxGeometry relative="1" as="geometry">
            <mxPoint x="-31915" y="-37860" as="sourcePoint" />
            <mxPoint x="-31845" y="-37780" as="targetPoint" />
          </mxGeometry>
        </mxCell>
        <mxCell id="JsS4taf1Mu2UrzmlKcsl-121" value="include" style="edgeLabel;resizable=0;html=1;;align=center;verticalAlign=middle;" connectable="0" vertex="1" parent="JsS4taf1Mu2UrzmlKcsl-120">
          <mxGeometry relative="1" as="geometry" />
        </mxCell>
        <mxCell id="JsS4taf1Mu2UrzmlKcsl-122" value="Verificar correo" style="ellipse;whiteSpace=wrap;html=1;" vertex="1" parent="1">
          <mxGeometry x="-32085" y="-37780" width="160" height="60" as="geometry" />
        </mxCell>
        <mxCell id="JsS4taf1Mu2UrzmlKcsl-123" value="Subir documentos" style="ellipse;whiteSpace=wrap;html=1;" vertex="1" parent="1">
          <mxGeometry x="-31924" y="-37780" width="160" height="60" as="geometry" />
        </mxCell>
        <mxCell id="JsS4taf1Mu2UrzmlKcsl-124" value="" style="endArrow=classic;html=1;rounded=0;exitX=0.5;exitY=1;exitDx=0;exitDy=0;" edge="1" parent="1" source="JsS4taf1Mu2UrzmlKcsl-122">
          <mxGeometry width="50" height="50" relative="1" as="geometry">
            <mxPoint x="-31785" y="-37850" as="sourcePoint" />
            <mxPoint x="-32005" y="-37630" as="targetPoint" />
          </mxGeometry>
        </mxCell>
        <mxCell id="JsS4taf1Mu2UrzmlKcsl-125" value="Revisión del administrador" style="ellipse;whiteSpace=wrap;html=1;" vertex="1" parent="1">
          <mxGeometry x="-32084" y="-37630" width="160" height="60" as="geometry" />
        </mxCell>
        <mxCell id="JsS4taf1Mu2UrzmlKcsl-126" value="" style="endArrow=classic;html=1;rounded=0;exitX=1;exitY=0;exitDx=0;exitDy=0;entryX=0;entryY=0.5;entryDx=0;entryDy=0;" edge="1" parent="1" source="JsS4taf1Mu2UrzmlKcsl-125" target="JsS4taf1Mu2UrzmlKcsl-128">
          <mxGeometry width="50" height="50" relative="1" as="geometry">
            <mxPoint x="-31995" y="-37710" as="sourcePoint" />
            <mxPoint x="-31805" y="-37620" as="targetPoint" />
            <Array as="points">
              <mxPoint x="-31947" y="-37650" />
            </Array>
          </mxGeometry>
        </mxCell>
        <mxCell id="JsS4taf1Mu2UrzmlKcsl-127" value="" style="endArrow=classic;html=1;rounded=0;exitX=1;exitY=1;exitDx=0;exitDy=0;entryX=0;entryY=0.5;entryDx=0;entryDy=0;" edge="1" parent="1" source="JsS4taf1Mu2UrzmlKcsl-125" target="JsS4taf1Mu2UrzmlKcsl-129">
          <mxGeometry width="50" height="50" relative="1" as="geometry">
            <mxPoint x="-31946" y="-37580" as="sourcePoint" />
            <mxPoint x="-31804" y="-37579" as="targetPoint" />
            <Array as="points">
              <mxPoint x="-31947" y="-37558" />
            </Array>
          </mxGeometry>
        </mxCell>
        <mxCell id="JsS4taf1Mu2UrzmlKcsl-128" value="Aprobado: acceso" style="ellipse;whiteSpace=wrap;html=1;" vertex="1" parent="1">
          <mxGeometry x="-31805" y="-37690" width="120" height="80" as="geometry" />
        </mxCell>
        <mxCell id="JsS4taf1Mu2UrzmlKcsl-129" value="Rechazado: notificación" style="ellipse;whiteSpace=wrap;html=1;" vertex="1" parent="1">
          <mxGeometry x="-31805" y="-37598" width="120" height="80" as="geometry" />
        </mxCell>
        <mxCell id="JsS4taf1Mu2UrzmlKcsl-130" value="Administrador" style="shape=actor;verticalLabelPosition=bottom;verticalAlign=top;" vertex="1" parent="1">
          <mxGeometry x="-31400" y="-38780" width="60" height="70" as="geometry" />
        </mxCell>
        <mxCell id="JsS4taf1Mu2UrzmlKcsl-131" value="10. Gestión de solicitudes de organizadores" style="text;html=1;align=center;verticalAlign=middle;resizable=0;points=[];autosize=1;strokeColor=none;fillColor=none;" vertex="1" parent="1">
          <mxGeometry x="-31430" y="-38860" width="260" height="30" as="geometry" />
        </mxCell>
        <mxCell id="JsS4taf1Mu2UrzmlKcsl-132" value="" style="endArrow=classic;html=1;rounded=0;exitX=1;exitY=0.75;exitDx=0;exitDy=0;" edge="1" parent="1" source="JsS4taf1Mu2UrzmlKcsl-130" target="JsS4taf1Mu2UrzmlKcsl-133">
          <mxGeometry width="50" height="50" relative="1" as="geometry">
            <mxPoint x="-31020" y="-38590" as="sourcePoint" />
            <mxPoint x="-31210" y="-38727" as="targetPoint" />
          </mxGeometry>
        </mxCell>
        <mxCell id="JsS4taf1Mu2UrzmlKcsl-133" value="Gestionar solicitudes" style="ellipse;whiteSpace=wrap;html=1;" vertex="1" parent="1">
          <mxGeometry x="-31232" y="-38760" width="160" height="60" as="geometry" />
        </mxCell>
        <mxCell id="JsS4taf1Mu2UrzmlKcsl-134" value="" style="endArrow=classic;html=1;rounded=0;exitX=0.5;exitY=1;exitDx=0;exitDy=0;entryX=0.5;entryY=0;entryDx=0;entryDy=0;" edge="1" parent="1">
          <mxGeometry relative="1" as="geometry">
            <mxPoint x="-31145.71" y="-38700" as="sourcePoint" />
            <mxPoint x="-31145.71" y="-38610" as="targetPoint" />
          </mxGeometry>
        </mxCell>
        <mxCell id="JsS4taf1Mu2UrzmlKcsl-135" value="include" style="edgeLabel;resizable=0;html=1;;align=center;verticalAlign=middle;" connectable="0" vertex="1" parent="JsS4taf1Mu2UrzmlKcsl-134">
          <mxGeometry relative="1" as="geometry" />
        </mxCell>
        <mxCell id="JsS4taf1Mu2UrzmlKcsl-136" value="Ver detalles del solicitante" style="ellipse;whiteSpace=wrap;html=1;" vertex="1" parent="1">
          <mxGeometry x="-31225" y="-38610" width="160" height="60" as="geometry" />
        </mxCell>
        <mxCell id="JsS4taf1Mu2UrzmlKcsl-137" value="" style="endArrow=classic;html=1;rounded=0;exitX=0.5;exitY=1;exitDx=0;exitDy=0;entryX=0;entryY=0.5;entryDx=0;entryDy=0;" edge="1" parent="1" target="JsS4taf1Mu2UrzmlKcsl-139">
          <mxGeometry relative="1" as="geometry">
            <mxPoint x="-31072" y="-38730" as="sourcePoint" />
            <mxPoint x="-31000" y="-38730" as="targetPoint" />
          </mxGeometry>
        </mxCell>
        <mxCell id="JsS4taf1Mu2UrzmlKcsl-138" value="include" style="edgeLabel;resizable=0;html=1;;align=center;verticalAlign=middle;" connectable="0" vertex="1" parent="JsS4taf1Mu2UrzmlKcsl-137">
          <mxGeometry relative="1" as="geometry" />
        </mxCell>
        <mxCell id="JsS4taf1Mu2UrzmlKcsl-139" value="Aceptar o rechazar solicitud" style="ellipse;whiteSpace=wrap;html=1;" vertex="1" parent="1">
          <mxGeometry x="-30960" y="-38760" width="160" height="60" as="geometry" />
        </mxCell>
        <mxCell id="JsS4taf1Mu2UrzmlKcsl-140" value="" style="endArrow=classic;html=1;rounded=0;exitX=0.5;exitY=1;exitDx=0;exitDy=0;entryX=0.5;entryY=0;entryDx=0;entryDy=0;" edge="1" parent="1" source="JsS4taf1Mu2UrzmlKcsl-139" target="JsS4taf1Mu2UrzmlKcsl-142">
          <mxGeometry width="50" height="50" relative="1" as="geometry">
            <mxPoint x="-31020" y="-38590" as="sourcePoint" />
            <mxPoint x="-30937" y="-38590" as="targetPoint" />
          </mxGeometry>
        </mxCell>
        <mxCell id="JsS4taf1Mu2UrzmlKcsl-141" value="" style="endArrow=classic;html=1;rounded=0;exitX=1;exitY=0.5;exitDx=0;exitDy=0;" edge="1" parent="1" source="JsS4taf1Mu2UrzmlKcsl-139">
          <mxGeometry width="50" height="50" relative="1" as="geometry">
            <mxPoint x="-30790" y="-38730" as="sourcePoint" />
            <mxPoint x="-30740" y="-38690" as="targetPoint" />
            <Array as="points">
              <mxPoint x="-30740" y="-38730" />
            </Array>
          </mxGeometry>
        </mxCell>
        <mxCell id="JsS4taf1Mu2UrzmlKcsl-142" value="Conceder acceso como organizador" style="ellipse;whiteSpace=wrap;html=1;" vertex="1" parent="1">
          <mxGeometry x="-30960" y="-38587" width="160" height="60" as="geometry" />
        </mxCell>
        <mxCell id="JsS4taf1Mu2UrzmlKcsl-143" value="Notificar rechazo y registrar estado" style="ellipse;whiteSpace=wrap;html=1;" vertex="1" parent="1">
          <mxGeometry x="-30819" y="-38690" width="160" height="60" as="geometry" />
        </mxCell>
        <mxCell id="JsS4taf1Mu2UrzmlKcsl-144" value="Administrador" style="shape=actor;verticalLabelPosition=bottom;verticalAlign=top;" vertex="1" parent="1">
          <mxGeometry x="-31385" y="-38420" width="60" height="70" as="geometry" />
        </mxCell>
        <mxCell id="JsS4taf1Mu2UrzmlKcsl-145" value="11. Listado de organizadores de eventos" style="text;html=1;align=center;verticalAlign=middle;resizable=0;points=[];autosize=1;strokeColor=none;fillColor=none;" vertex="1" parent="1">
          <mxGeometry x="-31415" y="-38480" width="240" height="30" as="geometry" />
        </mxCell>
        <mxCell id="JsS4taf1Mu2UrzmlKcsl-146" value="" style="endArrow=classic;html=1;rounded=0;exitX=1;exitY=0.75;exitDx=0;exitDy=0;entryX=0;entryY=0.5;entryDx=0;entryDy=0;" edge="1" parent="1" target="JsS4taf1Mu2UrzmlKcsl-147">
          <mxGeometry width="50" height="50" relative="1" as="geometry">
            <mxPoint x="-31325" y="-38368" as="sourcePoint" />
            <mxPoint x="-31217" y="-38370" as="targetPoint" />
          </mxGeometry>
        </mxCell>
        <mxCell id="JsS4taf1Mu2UrzmlKcsl-147" value="Ver listado de organizadores" style="ellipse;whiteSpace=wrap;html=1;" vertex="1" parent="1">
          <mxGeometry x="-31220" y="-38400" width="160" height="60" as="geometry" />
        </mxCell>
        <mxCell id="JsS4taf1Mu2UrzmlKcsl-148" value="" style="endArrow=classic;html=1;rounded=0;exitX=0.5;exitY=1;exitDx=0;exitDy=0;entryX=0;entryY=0.5;entryDx=0;entryDy=0;" edge="1" parent="1" target="JsS4taf1Mu2UrzmlKcsl-150" source="JsS4taf1Mu2UrzmlKcsl-147">
          <mxGeometry relative="1" as="geometry">
            <mxPoint x="-31190" y="-38230" as="sourcePoint" />
            <mxPoint x="-31190" y="-38800" as="targetPoint" />
            <Array as="points">
              <mxPoint x="-31140" y="-38230" />
            </Array>
          </mxGeometry>
        </mxCell>
        <mxCell id="JsS4taf1Mu2UrzmlKcsl-149" value="include" style="edgeLabel;resizable=0;html=1;;align=center;verticalAlign=middle;" connectable="0" vertex="1" parent="JsS4taf1Mu2UrzmlKcsl-148">
          <mxGeometry relative="1" as="geometry" />
        </mxCell>
        <mxCell id="JsS4taf1Mu2UrzmlKcsl-150" value="Mostrar información en la interfaz" style="ellipse;whiteSpace=wrap;html=1;" vertex="1" parent="1">
          <mxGeometry x="-31060" y="-38260" width="160" height="60" as="geometry" />
        </mxCell>
        <mxCell id="JsS4taf1Mu2UrzmlKcsl-152" value="Realizar acción en el perfil&lt;div&gt;(ver eventos, editar, borrar)&lt;/div&gt;" style="ellipse;whiteSpace=wrap;html=1;" vertex="1" parent="1">
          <mxGeometry x="-30840" y="-38380" width="160" height="60" as="geometry" />
        </mxCell>
        <mxCell id="JsS4taf1Mu2UrzmlKcsl-153" value="" style="endArrow=classic;html=1;rounded=0;exitX=0.5;exitY=0;exitDx=0;exitDy=0;entryX=0;entryY=0.5;entryDx=0;entryDy=0;" edge="1" parent="1" source="JsS4taf1Mu2UrzmlKcsl-150" target="JsS4taf1Mu2UrzmlKcsl-152">
          <mxGeometry relative="1" as="geometry">
            <mxPoint x="-30920" y="-38480" as="sourcePoint" />
            <mxPoint x="-30920" y="-38390" as="targetPoint" />
            <Array as="points">
              <mxPoint x="-30980" y="-38350" />
            </Array>
          </mxGeometry>
        </mxCell>
        <mxCell id="JsS4taf1Mu2UrzmlKcsl-154" value="include" style="edgeLabel;resizable=0;html=1;;align=center;verticalAlign=middle;" connectable="0" vertex="1" parent="JsS4taf1Mu2UrzmlKcsl-153">
          <mxGeometry relative="1" as="geometry" />
        </mxCell>
        <mxCell id="JsS4taf1Mu2UrzmlKcsl-155" value="Administrador" style="shape=actor;verticalLabelPosition=bottom;verticalAlign=top;" vertex="1" parent="1">
          <mxGeometry x="-31400" y="-38130" width="60" height="70" as="geometry" />
        </mxCell>
        <mxCell id="JsS4taf1Mu2UrzmlKcsl-156" value="12. Aceptar o rechazar solicitudes de eventos" style="text;html=1;align=center;verticalAlign=middle;resizable=0;points=[];autosize=1;strokeColor=none;fillColor=none;" vertex="1" parent="1">
          <mxGeometry x="-31415" y="-38180" width="270" height="30" as="geometry" />
        </mxCell>
        <mxCell id="JsS4taf1Mu2UrzmlKcsl-157" value="" style="endArrow=classic;html=1;rounded=0;exitX=1;exitY=0.75;exitDx=0;exitDy=0;entryX=0;entryY=0.5;entryDx=0;entryDy=0;" edge="1" parent="1" target="JsS4taf1Mu2UrzmlKcsl-158">
          <mxGeometry width="50" height="50" relative="1" as="geometry">
            <mxPoint x="-31340" y="-38078" as="sourcePoint" />
            <mxPoint x="-31232" y="-38080" as="targetPoint" />
          </mxGeometry>
        </mxCell>
        <mxCell id="JsS4taf1Mu2UrzmlKcsl-158" value="Gestionar solicitudes" style="ellipse;whiteSpace=wrap;html=1;" vertex="1" parent="1">
          <mxGeometry x="-31235" y="-38110" width="160" height="60" as="geometry" />
        </mxCell>
        <mxCell id="JsS4taf1Mu2UrzmlKcsl-159" value="" style="endArrow=classic;html=1;rounded=0;exitX=0.5;exitY=1;exitDx=0;exitDy=0;entryX=0.5;entryY=0;entryDx=0;entryDy=0;" edge="1" parent="1" source="JsS4taf1Mu2UrzmlKcsl-158" target="JsS4taf1Mu2UrzmlKcsl-161">
          <mxGeometry relative="1" as="geometry">
            <mxPoint x="-31205" y="-37940" as="sourcePoint" />
            <mxPoint x="-31205" y="-38510" as="targetPoint" />
            <Array as="points">
              <mxPoint x="-31155" y="-37940" />
            </Array>
          </mxGeometry>
        </mxCell>
        <mxCell id="JsS4taf1Mu2UrzmlKcsl-160" value="include" style="edgeLabel;resizable=0;html=1;;align=center;verticalAlign=middle;" connectable="0" vertex="1" parent="JsS4taf1Mu2UrzmlKcsl-159">
          <mxGeometry relative="1" as="geometry" />
        </mxCell>
        <mxCell id="JsS4taf1Mu2UrzmlKcsl-161" value="Ver detalles del evento" style="ellipse;whiteSpace=wrap;html=1;" vertex="1" parent="1">
          <mxGeometry x="-31235" y="-37910" width="160" height="60" as="geometry" />
        </mxCell>
        <mxCell id="JsS4taf1Mu2UrzmlKcsl-162" value="Aceptar o rechazar solicitud" style="ellipse;whiteSpace=wrap;html=1;" vertex="1" parent="1">
          <mxGeometry x="-30860" y="-38110" width="160" height="60" as="geometry" />
        </mxCell>
        <mxCell id="JsS4taf1Mu2UrzmlKcsl-163" value="" style="endArrow=classic;html=1;rounded=0;exitX=1;exitY=0.5;exitDx=0;exitDy=0;entryX=0;entryY=0.5;entryDx=0;entryDy=0;" edge="1" parent="1" source="JsS4taf1Mu2UrzmlKcsl-158" target="JsS4taf1Mu2UrzmlKcsl-162">
          <mxGeometry relative="1" as="geometry">
            <mxPoint x="-30935" y="-38190" as="sourcePoint" />
            <mxPoint x="-30935" y="-38100" as="targetPoint" />
            <Array as="points" />
          </mxGeometry>
        </mxCell>
        <mxCell id="JsS4taf1Mu2UrzmlKcsl-164" value="include" style="edgeLabel;resizable=0;html=1;;align=center;verticalAlign=middle;" connectable="0" vertex="1" parent="JsS4taf1Mu2UrzmlKcsl-163">
          <mxGeometry relative="1" as="geometry" />
        </mxCell>
        <mxCell id="JsS4taf1Mu2UrzmlKcsl-167" value="Publicar evento y generar entradas" style="ellipse;whiteSpace=wrap;html=1;" vertex="1" parent="1">
          <mxGeometry x="-30990" y="-37960" width="160" height="60" as="geometry" />
        </mxCell>
        <mxCell id="JsS4taf1Mu2UrzmlKcsl-168" value="Notificar rechazo con motivo y registro" style="ellipse;whiteSpace=wrap;html=1;" vertex="1" parent="1">
          <mxGeometry x="-30799" y="-37960" width="160" height="60" as="geometry" />
        </mxCell>
        <mxCell id="JsS4taf1Mu2UrzmlKcsl-169" value="" style="endArrow=classic;html=1;rounded=0;exitX=0;exitY=1;exitDx=0;exitDy=0;entryX=0.5;entryY=0;entryDx=0;entryDy=0;" edge="1" parent="1" source="JsS4taf1Mu2UrzmlKcsl-162" target="JsS4taf1Mu2UrzmlKcsl-167">
          <mxGeometry width="50" height="50" relative="1" as="geometry">
            <mxPoint x="-30872" y="-37980" as="sourcePoint" />
            <mxPoint x="-30822" y="-38030" as="targetPoint" />
          </mxGeometry>
        </mxCell>
        <mxCell id="JsS4taf1Mu2UrzmlKcsl-170" value="" style="endArrow=classic;html=1;rounded=0;exitX=0.5;exitY=1;exitDx=0;exitDy=0;entryX=0.5;entryY=0;entryDx=0;entryDy=0;" edge="1" parent="1" source="JsS4taf1Mu2UrzmlKcsl-162" target="JsS4taf1Mu2UrzmlKcsl-168">
          <mxGeometry width="50" height="50" relative="1" as="geometry">
            <mxPoint x="-30827" y="-38049" as="sourcePoint" />
            <mxPoint x="-30900" y="-37950" as="targetPoint" />
            <Array as="points">
              <mxPoint x="-30720" y="-38020" />
            </Array>
          </mxGeometry>
        </mxCell>
        <mxCell id="JsS4taf1Mu2UrzmlKcsl-171" value="13. Añadir nuevos administradores" style="text;html=1;align=center;verticalAlign=middle;resizable=0;points=[];autosize=1;strokeColor=none;fillColor=none;" vertex="1" parent="1">
          <mxGeometry x="-31420" y="-37800" width="210" height="30" as="geometry" />
        </mxCell>
        <mxCell id="JsS4taf1Mu2UrzmlKcsl-172" value="Administrador" style="shape=actor;verticalLabelPosition=bottom;verticalAlign=top;" vertex="1" parent="1">
          <mxGeometry x="-31405" y="-37745" width="60" height="70" as="geometry" />
        </mxCell>
        <mxCell id="JsS4taf1Mu2UrzmlKcsl-173" value="Gestionar permisos en el contrato" style="ellipse;whiteSpace=wrap;html=1;" vertex="1" parent="1">
          <mxGeometry x="-31250" y="-37720" width="160" height="60" as="geometry" />
        </mxCell>
        <mxCell id="JsS4taf1Mu2UrzmlKcsl-174" value="" style="endArrow=classic;html=1;rounded=0;entryX=0;entryY=0.5;entryDx=0;entryDy=0;exitX=1;exitY=0.75;exitDx=0;exitDy=0;" edge="1" parent="1" source="JsS4taf1Mu2UrzmlKcsl-172" target="JsS4taf1Mu2UrzmlKcsl-173">
          <mxGeometry width="50" height="50" relative="1" as="geometry">
            <mxPoint x="-31320" y="-37645" as="sourcePoint" />
            <mxPoint x="-31270" y="-37695" as="targetPoint" />
          </mxGeometry>
        </mxCell>
        <mxCell id="JsS4taf1Mu2UrzmlKcsl-175" value="Añadir wallet con rol ADMIN" style="ellipse;whiteSpace=wrap;html=1;" vertex="1" parent="1">
          <mxGeometry x="-30940" y="-37760" width="160" height="60" as="geometry" />
        </mxCell>
        <mxCell id="JsS4taf1Mu2UrzmlKcsl-176" value="Eliminar wallet con rol ADMIN" style="ellipse;whiteSpace=wrap;html=1;" vertex="1" parent="1">
          <mxGeometry x="-30940" y="-37680" width="160" height="60" as="geometry" />
        </mxCell>
        <mxCell id="JsS4taf1Mu2UrzmlKcsl-177" value="Actualizar acceso a la interfaz según el rol" style="ellipse;whiteSpace=wrap;html=1;" vertex="1" parent="1">
          <mxGeometry x="-31250" y="-37530" width="160" height="60" as="geometry" />
        </mxCell>
        <mxCell id="JsS4taf1Mu2UrzmlKcsl-178" value="" style="endArrow=classic;html=1;rounded=0;exitX=0.5;exitY=1;exitDx=0;exitDy=0;entryX=0.5;entryY=0;entryDx=0;entryDy=0;" edge="1" parent="1" source="JsS4taf1Mu2UrzmlKcsl-173" target="JsS4taf1Mu2UrzmlKcsl-177">
          <mxGeometry relative="1" as="geometry">
            <mxPoint x="-31190" y="-37640" as="sourcePoint" />
            <mxPoint x="-31150" y="-37510" as="targetPoint" />
            <Array as="points" />
          </mxGeometry>
        </mxCell>
        <mxCell id="JsS4taf1Mu2UrzmlKcsl-179" value="include" style="edgeLabel;resizable=0;html=1;;align=center;verticalAlign=middle;" connectable="0" vertex="1" parent="JsS4taf1Mu2UrzmlKcsl-178">
          <mxGeometry relative="1" as="geometry" />
        </mxCell>
        <mxCell id="JsS4taf1Mu2UrzmlKcsl-180" value="" style="endArrow=classic;html=1;rounded=0;exitX=1;exitY=0;exitDx=0;exitDy=0;entryX=0;entryY=0.5;entryDx=0;entryDy=0;" edge="1" parent="1" source="JsS4taf1Mu2UrzmlKcsl-173" target="JsS4taf1Mu2UrzmlKcsl-175">
          <mxGeometry relative="1" as="geometry">
            <mxPoint x="-31026.43" y="-37720" as="sourcePoint" />
            <mxPoint x="-31026.43" y="-37590" as="targetPoint" />
            <Array as="points" />
          </mxGeometry>
        </mxCell>
        <mxCell id="JsS4taf1Mu2UrzmlKcsl-181" value="include" style="edgeLabel;resizable=0;html=1;;align=center;verticalAlign=middle;" connectable="0" vertex="1" parent="JsS4taf1Mu2UrzmlKcsl-180">
          <mxGeometry relative="1" as="geometry" />
        </mxCell>
        <mxCell id="JsS4taf1Mu2UrzmlKcsl-182" value="" style="endArrow=classic;html=1;rounded=0;exitX=1;exitY=1;exitDx=0;exitDy=0;entryX=0;entryY=0.5;entryDx=0;entryDy=0;" edge="1" parent="1" source="JsS4taf1Mu2UrzmlKcsl-173" target="JsS4taf1Mu2UrzmlKcsl-176">
          <mxGeometry relative="1" as="geometry">
            <mxPoint x="-31150" y="-37640" as="sourcePoint" />
            <mxPoint x="-31150" y="-37510" as="targetPoint" />
            <Array as="points" />
          </mxGeometry>
        </mxCell>
        <mxCell id="JsS4taf1Mu2UrzmlKcsl-183" value="include" style="edgeLabel;resizable=0;html=1;;align=center;verticalAlign=middle;" connectable="0" vertex="1" parent="JsS4taf1Mu2UrzmlKcsl-182">
          <mxGeometry relative="1" as="geometry" />
        </mxCell>
      </root>
    </mxGraphModel>
  </diagram>
</mxfile>
